<mxfile host="app.diagrams.net" modified="2024-05-23T08:33:33.666Z" agent="Mozilla/5.0 (Windows NT 10.0; Win64; x64) AppleWebKit/537.36 (KHTML, like Gecko) Chrome/124.0.0.0 Safari/537.36" etag="91rI9GUujrnaftxLsKvL" version="24.4.6" type="github">
  <diagram id="C5RBs43oDa-KdzZeNtuy" name="Page-1">
    <mxGraphModel dx="1050" dy="1691" grid="1" gridSize="10" guides="1" tooltips="1" connect="1" arrows="1" fold="1" page="1" pageScale="1" pageWidth="827" pageHeight="1169" math="0" shadow="0">
      <root>
        <mxCell id="WIyWlLk6GJQsqaUBKTNV-0" />
        <mxCell id="WIyWlLk6GJQsqaUBKTNV-1" parent="WIyWlLk6GJQsqaUBKTNV-0" />
        <mxCell id="A5-QNZRgNm4B5PNgfIuX-0" value="开始" style="rounded=0;whiteSpace=wrap;html=1;" vertex="1" parent="WIyWlLk6GJQsqaUBKTNV-1">
          <mxGeometry x="160" y="-280" width="120" height="60" as="geometry" />
        </mxCell>
        <mxCell id="A5-QNZRgNm4B5PNgfIuX-1" value="处理全局变量关中断" style="rounded=0;whiteSpace=wrap;html=1;" vertex="1" parent="WIyWlLk6GJQsqaUBKTNV-1">
          <mxGeometry x="160" y="-180" width="120" height="60" as="geometry" />
        </mxCell>
        <mxCell id="A5-QNZRgNm4B5PNgfIuX-2" value="是否中断嵌套或调度上限" style="rhombus;whiteSpace=wrap;html=1;" vertex="1" parent="WIyWlLk6GJQsqaUBKTNV-1">
          <mxGeometry x="110" y="-60" width="220" height="80" as="geometry" />
        </mxCell>
        <mxCell id="A5-QNZRgNm4B5PNgfIuX-5" value="" style="endArrow=classic;html=1;rounded=0;entryX=0.5;entryY=0;entryDx=0;entryDy=0;exitX=0.5;exitY=1;exitDx=0;exitDy=0;" edge="1" parent="WIyWlLk6GJQsqaUBKTNV-1" source="A5-QNZRgNm4B5PNgfIuX-1" target="A5-QNZRgNm4B5PNgfIuX-2">
          <mxGeometry width="50" height="50" relative="1" as="geometry">
            <mxPoint x="200" y="-20" as="sourcePoint" />
            <mxPoint x="250" y="-70" as="targetPoint" />
          </mxGeometry>
        </mxCell>
        <mxCell id="A5-QNZRgNm4B5PNgfIuX-6" value="" style="endArrow=classic;html=1;rounded=0;exitX=0.5;exitY=1;exitDx=0;exitDy=0;entryX=0.5;entryY=0;entryDx=0;entryDy=0;" edge="1" parent="WIyWlLk6GJQsqaUBKTNV-1" source="A5-QNZRgNm4B5PNgfIuX-0" target="A5-QNZRgNm4B5PNgfIuX-1">
          <mxGeometry width="50" height="50" relative="1" as="geometry">
            <mxPoint x="190" y="-180" as="sourcePoint" />
            <mxPoint x="280" y="-210" as="targetPoint" />
          </mxGeometry>
        </mxCell>
        <mxCell id="A5-QNZRgNm4B5PNgfIuX-7" value="找出准备就绪且优先级最高的任务" style="rounded=0;whiteSpace=wrap;html=1;" vertex="1" parent="WIyWlLk6GJQsqaUBKTNV-1">
          <mxGeometry x="160" y="90" width="120" height="60" as="geometry" />
        </mxCell>
        <mxCell id="A5-QNZRgNm4B5PNgfIuX-8" value="" style="endArrow=classic;html=1;rounded=0;exitX=0.5;exitY=1;exitDx=0;exitDy=0;" edge="1" parent="WIyWlLk6GJQsqaUBKTNV-1" source="A5-QNZRgNm4B5PNgfIuX-2" target="A5-QNZRgNm4B5PNgfIuX-7">
          <mxGeometry relative="1" as="geometry">
            <mxPoint x="170" y="150" as="sourcePoint" />
            <mxPoint x="270" y="150" as="targetPoint" />
          </mxGeometry>
        </mxCell>
        <mxCell id="A5-QNZRgNm4B5PNgfIuX-9" value="N" style="edgeLabel;resizable=0;html=1;;align=center;verticalAlign=middle;" connectable="0" vertex="1" parent="A5-QNZRgNm4B5PNgfIuX-8">
          <mxGeometry relative="1" as="geometry" />
        </mxCell>
        <mxCell id="A5-QNZRgNm4B5PNgfIuX-10" value="该任务是否为当前运行任务" style="rhombus;whiteSpace=wrap;html=1;" vertex="1" parent="WIyWlLk6GJQsqaUBKTNV-1">
          <mxGeometry x="110" y="210" width="220" height="80" as="geometry" />
        </mxCell>
        <mxCell id="A5-QNZRgNm4B5PNgfIuX-11" value="" style="endArrow=classic;html=1;rounded=0;exitX=0.5;exitY=1;exitDx=0;exitDy=0;entryX=0.5;entryY=0;entryDx=0;entryDy=0;" edge="1" parent="WIyWlLk6GJQsqaUBKTNV-1" source="A5-QNZRgNm4B5PNgfIuX-7" target="A5-QNZRgNm4B5PNgfIuX-10">
          <mxGeometry width="50" height="50" relative="1" as="geometry">
            <mxPoint x="200" y="280" as="sourcePoint" />
            <mxPoint x="250" y="230" as="targetPoint" />
          </mxGeometry>
        </mxCell>
        <mxCell id="A5-QNZRgNm4B5PNgfIuX-12" value="将OSTCBHighReady指针指向该任务的控制模块" style="rounded=0;whiteSpace=wrap;html=1;" vertex="1" parent="WIyWlLk6GJQsqaUBKTNV-1">
          <mxGeometry x="85" y="350" width="270" height="60" as="geometry" />
        </mxCell>
        <mxCell id="A5-QNZRgNm4B5PNgfIuX-13" value="" style="endArrow=classic;html=1;rounded=0;exitX=0.5;exitY=1;exitDx=0;exitDy=0;entryX=0.5;entryY=0;entryDx=0;entryDy=0;" edge="1" parent="WIyWlLk6GJQsqaUBKTNV-1" source="A5-QNZRgNm4B5PNgfIuX-10" target="A5-QNZRgNm4B5PNgfIuX-12">
          <mxGeometry relative="1" as="geometry">
            <mxPoint x="170" y="350" as="sourcePoint" />
            <mxPoint x="270" y="350" as="targetPoint" />
          </mxGeometry>
        </mxCell>
        <mxCell id="A5-QNZRgNm4B5PNgfIuX-14" value="N" style="edgeLabel;resizable=0;html=1;;align=center;verticalAlign=middle;" connectable="0" vertex="1" parent="A5-QNZRgNm4B5PNgfIuX-13">
          <mxGeometry relative="1" as="geometry" />
        </mxCell>
        <mxCell id="A5-QNZRgNm4B5PNgfIuX-15" value="任务切换停机数据计数器+1" style="rounded=0;whiteSpace=wrap;html=1;" vertex="1" parent="WIyWlLk6GJQsqaUBKTNV-1">
          <mxGeometry x="130" y="470" width="180" height="60" as="geometry" />
        </mxCell>
        <mxCell id="A5-QNZRgNm4B5PNgfIuX-16" value="调用任务切换函数" style="rounded=0;whiteSpace=wrap;html=1;" vertex="1" parent="WIyWlLk6GJQsqaUBKTNV-1">
          <mxGeometry x="160" y="580" width="120" height="60" as="geometry" />
        </mxCell>
        <mxCell id="A5-QNZRgNm4B5PNgfIuX-17" value="中断" style="rounded=0;whiteSpace=wrap;html=1;" vertex="1" parent="WIyWlLk6GJQsqaUBKTNV-1">
          <mxGeometry x="160" y="730" width="120" height="60" as="geometry" />
        </mxCell>
        <mxCell id="A5-QNZRgNm4B5PNgfIuX-18" value="结束" style="rounded=0;whiteSpace=wrap;html=1;" vertex="1" parent="WIyWlLk6GJQsqaUBKTNV-1">
          <mxGeometry x="160" y="910" width="120" height="60" as="geometry" />
        </mxCell>
        <mxCell id="A5-QNZRgNm4B5PNgfIuX-19" value="" style="endArrow=classic;html=1;rounded=0;exitX=0.5;exitY=1;exitDx=0;exitDy=0;entryX=0.5;entryY=0;entryDx=0;entryDy=0;" edge="1" parent="WIyWlLk6GJQsqaUBKTNV-1" source="A5-QNZRgNm4B5PNgfIuX-12" target="A5-QNZRgNm4B5PNgfIuX-15">
          <mxGeometry width="50" height="50" relative="1" as="geometry">
            <mxPoint x="200" y="680" as="sourcePoint" />
            <mxPoint x="250" y="630" as="targetPoint" />
          </mxGeometry>
        </mxCell>
        <mxCell id="A5-QNZRgNm4B5PNgfIuX-20" value="" style="endArrow=classic;html=1;rounded=0;entryX=0.5;entryY=0;entryDx=0;entryDy=0;" edge="1" parent="WIyWlLk6GJQsqaUBKTNV-1" source="A5-QNZRgNm4B5PNgfIuX-15" target="A5-QNZRgNm4B5PNgfIuX-16">
          <mxGeometry width="50" height="50" relative="1" as="geometry">
            <mxPoint x="200" y="680" as="sourcePoint" />
            <mxPoint x="250" y="630" as="targetPoint" />
          </mxGeometry>
        </mxCell>
        <mxCell id="A5-QNZRgNm4B5PNgfIuX-21" value="" style="endArrow=classic;html=1;rounded=0;entryX=0.5;entryY=0;entryDx=0;entryDy=0;exitX=0.5;exitY=1;exitDx=0;exitDy=0;" edge="1" parent="WIyWlLk6GJQsqaUBKTNV-1" source="A5-QNZRgNm4B5PNgfIuX-16" target="A5-QNZRgNm4B5PNgfIuX-17">
          <mxGeometry width="50" height="50" relative="1" as="geometry">
            <mxPoint x="195" y="710" as="sourcePoint" />
            <mxPoint x="245" y="660" as="targetPoint" />
          </mxGeometry>
        </mxCell>
        <mxCell id="A5-QNZRgNm4B5PNgfIuX-22" value="" style="endArrow=classic;html=1;rounded=0;entryX=0.5;entryY=0;entryDx=0;entryDy=0;exitX=0.5;exitY=1;exitDx=0;exitDy=0;" edge="1" parent="WIyWlLk6GJQsqaUBKTNV-1" source="A5-QNZRgNm4B5PNgfIuX-17" target="A5-QNZRgNm4B5PNgfIuX-18">
          <mxGeometry width="50" height="50" relative="1" as="geometry">
            <mxPoint x="200" y="790" as="sourcePoint" />
            <mxPoint x="250" y="740" as="targetPoint" />
          </mxGeometry>
        </mxCell>
        <mxCell id="A5-QNZRgNm4B5PNgfIuX-24" value="" style="endArrow=classic;html=1;rounded=0;exitX=1;exitY=0.5;exitDx=0;exitDy=0;entryX=1;entryY=0.5;entryDx=0;entryDy=0;" edge="1" parent="WIyWlLk6GJQsqaUBKTNV-1" source="A5-QNZRgNm4B5PNgfIuX-2" target="A5-QNZRgNm4B5PNgfIuX-17">
          <mxGeometry relative="1" as="geometry">
            <mxPoint x="520" y="410" as="sourcePoint" />
            <mxPoint x="620" y="410" as="targetPoint" />
            <Array as="points">
              <mxPoint x="560" y="-20" />
              <mxPoint x="560" y="370" />
              <mxPoint x="560" y="760" />
            </Array>
          </mxGeometry>
        </mxCell>
        <mxCell id="A5-QNZRgNm4B5PNgfIuX-25" value="Y&lt;div&gt;&lt;br&gt;&lt;/div&gt;" style="edgeLabel;resizable=0;html=1;;align=center;verticalAlign=middle;" connectable="0" vertex="1" parent="A5-QNZRgNm4B5PNgfIuX-24">
          <mxGeometry relative="1" as="geometry" />
        </mxCell>
        <mxCell id="A5-QNZRgNm4B5PNgfIuX-26" value="" style="endArrow=classic;html=1;rounded=0;exitX=1;exitY=0.5;exitDx=0;exitDy=0;entryX=1;entryY=0.25;entryDx=0;entryDy=0;" edge="1" parent="WIyWlLk6GJQsqaUBKTNV-1" source="A5-QNZRgNm4B5PNgfIuX-10" target="A5-QNZRgNm4B5PNgfIuX-17">
          <mxGeometry relative="1" as="geometry">
            <mxPoint x="520" y="370" as="sourcePoint" />
            <mxPoint x="620" y="370" as="targetPoint" />
            <Array as="points">
              <mxPoint x="480" y="250" />
              <mxPoint x="480" y="745" />
            </Array>
          </mxGeometry>
        </mxCell>
        <mxCell id="A5-QNZRgNm4B5PNgfIuX-27" value="Y&lt;div&gt;&lt;br&gt;&lt;/div&gt;" style="edgeLabel;resizable=0;html=1;;align=center;verticalAlign=middle;" connectable="0" vertex="1" parent="A5-QNZRgNm4B5PNgfIuX-26">
          <mxGeometry relative="1" as="geometry" />
        </mxCell>
      </root>
    </mxGraphModel>
  </diagram>
</mxfile>
